Input #0, mov,mp4,m4a,3gp,3g2,mj2, from '/Volumes/AIGC/AI-CUT/projects/0622/结果/文案10/auto-edit/edit/visual_base.mp4':
  Metadata:
    major_brand     : isom
    minor_version   : 512
    compatible_brands: isomiso2avc1mp41
    encoder         : Lavf62.3.100
  Duration: 00:00:42.60, start: 0.000000, bitrate: 2672 kb/s
  Stream #0:0[0x1](und): Video: h264 (High) (avc1 / 0x31637661), yuv420p(tv, bt709, progressive), 1280x720 [SAR 1:1 DAR 16:9], 2669 kb/s, 30 fps, 30 tbr, 15360 tbn (default)
    Metadata:
      handler_name    : VideoHandler
      vendor_id       : [0][0][0][0]
      encoder         : Lavc62.11.100 libx264
Input #1, mp3, from '/Volumes/AIGC/AI-CUT/projects/0622/素材/音频/文案10-音频.mp3':
  Metadata:
    AIGC            : {"Label":"1","ContentProducer":"MiniMax","ProduceID":"0687f3d62123a2e1e91d1481c0c642cd","ReservedCode1":"{\"SecurityData\":{\"Type\":\"TC260PG\",\"Version\":1,\"PubSD\":[{\"Type\":\"DS\",\"AlgID\":\"1.2.156.10197.1.501\",\"TBSData\":{\"Type\":\"LabelMataD
    encoder         : Lavf59.27.100
  Duration: 00:00:42.62, start: 0.016531, bitrate: 128 kb/s
  Stream #1:0: Audio: mp3 (mp3float), 32000 Hz, mono, fltp, 128 kb/s, start 0.016531
[Parsed_ass_0 @ 0xa2ac24840] libass API version: 0x1704000
[Parsed_ass_0 @ 0xa2ac24840] libass source: tarball: 0.17.4
[Parsed_ass_0 @ 0xa2ac24840] Shaper: FriBidi 1.0.16 (SIMPLE) HarfBuzz-ng 12.1.0 (COMPLEX)
[Parsed_ass_0 @ 0xa2ac24840] Using font provider coretext
[Parsed_ass_0 @ 0xa2ac24840] Added subtitle file: '/Volumes/AIGC/AI-CUT/projects/0622/结果/文案10/auto-edit/edit/master.ass' (2 styles, 13 events)
Stream mapping:
  Stream #0:0 -> #0:0 (h264 (native) -> h264 (libx264))
  Stream #1:0 -> #0:1 (mp3 (mp3float) -> aac (native))
Press [q] to stop, [?] for help
[Parsed_ass_0 @ 0xa2ae9c180] libass API version: 0x1704000
[Parsed_ass_0 @ 0xa2ae9c180] libass source: tarball: 0.17.4
[Parsed_ass_0 @ 0xa2ae9c180] Shaper: FriBidi 1.0.16 (SIMPLE) HarfBuzz-ng 12.1.0 (COMPLEX)
[Parsed_ass_0 @ 0xa2ae9c180] Using font provider coretext
[Parsed_ass_0 @ 0xa2ae9c180] Added subtitle file: '/Volumes/AIGC/AI-CUT/projects/0622/结果/文案10/auto-edit/edit/master.ass' (2 styles, 13 events)
[libx264 @ 0xa2ac6d180] using SAR=1/1
[libx264 @ 0xa2ac6d180] using cpu capabilities: ARMv8 NEON DotProd I8MM
[libx264 @ 0xa2ac6d180] profile High, level 3.1, 4:2:0, 8-bit
[libx264 @ 0xa2ac6d180] 264 - core 165 r3222 b35605a - H.264/MPEG-4 AVC codec - Copyleft 2003-2025 - http://www.videolan.org/x264.html - options: cabac=1 ref=1 deblock=1:0:0 analyse=0x3:0x113 me=hex subme=2 psy=1 psy_rd=1.00:0.00 mixed_ref=0 me_range=16 chroma_me=1 trellis=0 8x8dct=1 cqm=0 deadzone=21,11 fast_pskip=1 chroma_qp_offset=0 threads=15 lookahead_threads=5 sliced_threads=0 nr=0 decimate=1 interlaced=0 bluray_compat=0 constrained_intra=0 bframes=3 b_pyramid=2 b_adapt=1 b_bias=0 direct=1 weightb=1 open_gop=0 weightp=1 keyint=250 keyint_min=25 scenecut=40 intra_refresh=0 rc_lookahead=10 rc=crf mbtree=1 crf=20.0 qcomp=0.60 qpmin=0 qpmax=69 qpstep=4 ip_ratio=1.40 aq=1:1.00
Output #0, mp4, to '/Volumes/AIGC/AI-CUT/projects/0622/结果/文案10/文案10_final.mp4':
  Metadata:
    major_brand     : isom
    minor_version   : 512
    compatible_brands: isomiso2avc1mp41
    encoder         : Lavf62.3.100
  Stream #0:0(und): Video: h264 (avc1 / 0x31637661), yuv420p(tv, bt709, progressive), 1280x720 [SAR 1:1 DAR 16:9], q=2-31, 30 fps, 15360 tbn (default)
    Metadata:
      encoder         : Lavc62.11.100 libx264
      handler_name    : VideoHandler
      vendor_id       : [0][0][0][0]
    Side data:
      cpb: bitrate max/min/avg: 0/0/0 buffer size: 0 vbv_delay: N/A
  Stream #0:1: Audio: aac (LC) (mp4a / 0x6134706D), 32000 Hz, mono, fltp, 192 kb/s
    Metadata:
      encoder         : Lavc62.11.100 aac
[Parsed_ass_0 @ 0xa2ae9c180] fontselect: (Arial Unicode MS, 400, 0) -> /System/Library/Fonts/Supplemental/Arial Unicode.ttf, -1, ArialUnicodeMS
frame=  101 fps=0.0 q=26.0 size=    1024KiB time=00:00:03.30 bitrate=2542.1kbits/s speed=6.53x elapsed=0:00:00.50    
frame=  190 fps=189 q=26.0 size=    2560KiB time=00:00:06.26 bitrate=3346.6kbits/s speed=6.22x elapsed=0:00:01.00    
frame=  292 fps=193 q=26.0 size=    3584KiB time=00:00:09.66 bitrate=3037.3kbits/s speed= 6.4x elapsed=0:00:01.51    
frame=  453 fps=225 q=26.0 size=    5120KiB time=00:00:15.03 bitrate=2790.0kbits/s speed=7.46x elapsed=0:00:02.01    
frame=  590 fps=234 q=26.0 size=    6144KiB time=00:00:19.60 bitrate=2568.0kbits/s speed=7.78x elapsed=0:00:02.51    
frame=  780 fps=258 q=26.0 size=    7680KiB time=00:00:25.93 bitrate=2426.0kbits/s speed=8.58x elapsed=0:00:03.02    
frame=  934 fps=265 q=26.0 size=    9216KiB time=00:00:31.06 bitrate=2430.2kbits/s speed= 8.8x elapsed=0:00:03.52    
frame= 1091 fps=271 q=26.0 size=   11264KiB time=00:00:37.56 bitrate=2456.2kbits/s speed=9.32x elapsed=0:00:04.02    
[mp4 @ 0xa2b05c780] Starting second pass: moving the moov atom to the beginning of the file
[out#0/mp4 @ 0xa2ac24540] video:12886KiB audio:707KiB subtitle:0KiB other streams:0KiB global headers:0KiB muxing overhead: 0.237604%
frame= 1278 fps=282 q=-1.0 Lsize=   13625KiB time=00:00:42.53 bitrate=2624.3kbits/s speed=9.39x elapsed=0:00:04.53    
[libx264 @ 0xa2ac6d180] frame I:16    Avg QP:14.64  size: 49662
[libx264 @ 0xa2ac6d180] frame P:419   Avg QP:19.73  size: 19340
[libx264 @ 0xa2ac6d180] frame B:843   Avg QP:23.23  size:  5097
[libx264 @ 0xa2ac6d180] consecutive B-frames:  7.4% 11.1%  8.9% 72.6%
[libx264 @ 0xa2ac6d180] mb I  I16..4: 37.9% 27.2% 34.9%
[libx264 @ 0xa2ac6d180] mb P  I16..4: 10.6% 21.8%  5.8%  P16..4: 14.6%  8.1%  4.8%  0.0%  0.0%    skip:34.3%
[libx264 @ 0xa2ac6d180] mb B  I16..4:  1.3%  3.7%  0.8%  B16..8: 12.7%  5.1%  0.9%  direct: 3.0%  skip:72.5%  L0:38.3% L1:43.8% BI:17.9%
[libx264 @ 0xa2ac6d180] 8x8 transform intra:56.4% inter:22.0%
[libx264 @ 0xa2ac6d180] coded y,uvDC,uvAC intra: 51.2% 29.6% 4.4% inter: 6.6% 3.9% 0.3%
[libx264 @ 0xa2ac6d180] i16 v,h,dc,p: 52% 30% 11%  7%
[libx264 @ 0xa2ac6d180] i8 v,h,dc,ddl,ddr,vr,hd,vl,hu: 19% 38% 18%  2%  4%  3%  5%  4%  6%
[libx264 @ 0xa2ac6d180] i4 v,h,dc,ddl,ddr,vr,hd,vl,hu: 22% 36% 13%  2%  7%  4%  6%  4%  6%
[libx264 @ 0xa2ac6d180] i8c dc,h,v,p: 55% 28% 15%  2%
[libx264 @ 0xa2ac6d180] Weighted P-Frames: Y:6.0% UV:0.7%
[libx264 @ 0xa2ac6d180] kb/s:2477.94
[aac @ 0xa2ae10380] Qavg: 65399.645
